TITLE ""
FILE "LR_black_phrase_C08.mp3" MP3
  TRACK 01 AUDIO
    TITLE "LR_black_phrase_C08_001"
    INDEX 01 00:00:00
  TRACK 02 AUDIO
    TITLE "LR_black_phrase_C08_002"
    INDEX 01 00:00:14
  TRACK 03 AUDIO
    TITLE "LR_black_phrase_C08_003"
    INDEX 01 00:01:37
  TRACK 04 AUDIO
    TITLE "LR_black_phrase_C08_004"
    INDEX 01 00:01:74
  TRACK 05 AUDIO
    TITLE "LR_black_phrase_C08_005"
    INDEX 01 00:03:18
  TRACK 06 AUDIO
    TITLE "LR_black_phrase_C08_006"
    INDEX 01 00:04:18
  TRACK 07 AUDIO
    TITLE "LR_black_phrase_C08_007"
    INDEX 01 00:06:09
  TRACK 08 AUDIO
    TITLE "LR_black_phrase_C08_008"
    INDEX 01 00:06:46
  TRACK 09 AUDIO
    TITLE "LR_black_phrase_C08_009"
    INDEX 01 00:08:67
  TRACK 10 AUDIO
    TITLE "LR_black_phrase_C08_010"
    INDEX 01 00:09:23
  TRACK 11 AUDIO
    TITLE "LR_black_phrase_C08_011"
    INDEX 01 00:11:41
  TRACK 12 AUDIO
    TITLE "LR_black_phrase_C08_012"
    INDEX 01 00:12:47
  TRACK 13 AUDIO
    TITLE "LR_black_phrase_C08_013"
    INDEX 01 00:13:62
  TRACK 14 AUDIO
    TITLE "LR_black_phrase_C08_014"
    INDEX 01 00:14:28
  TRACK 15 AUDIO
    TITLE "LR_black_phrase_C08_015"
    INDEX 01 00:16:29
  TRACK 16 AUDIO
    TITLE "LR_black_phrase_C08_016"
    INDEX 01 00:17:30
  TRACK 17 AUDIO
    TITLE "LR_black_phrase_C08_017"
    INDEX 01 00:19:12
  TRACK 18 AUDIO
    TITLE "LR_black_phrase_C08_018"
    INDEX 01 00:19:51
  TRACK 19 AUDIO
    TITLE "LR_black_phrase_C08_019"
    INDEX 01 00:21:58
  TRACK 20 AUDIO
    TITLE "LR_black_phrase_C08_020"
    INDEX 01 00:22:14
  TRACK 21 AUDIO
    TITLE "LR_black_phrase_C08_021"
    INDEX 01 00:24:21
  TRACK 22 AUDIO
    TITLE "LR_black_phrase_C08_022"
    INDEX 01 00:25:20
  TRACK 23 AUDIO
    TITLE "LR_black_phrase_C08_023"
    INDEX 01 00:26:43
  TRACK 24 AUDIO
    TITLE "LR_black_phrase_C08_024"
    INDEX 01 00:27:07
  TRACK 25 AUDIO
    TITLE "LR_black_phrase_C08_025"
    INDEX 01 00:28:46
  TRACK 26 AUDIO
    TITLE "LR_black_phrase_C08_026"
    INDEX 01 00:29:45
  TRACK 27 AUDIO
    TITLE "LR_black_phrase_C08_027"
    INDEX 01 00:31:46
  TRACK 28 AUDIO
    TITLE "LR_black_phrase_C08_028"
    INDEX 01 00:32:04
  TRACK 29 AUDIO
    TITLE "LR_black_phrase_C08_029"
    INDEX 01 00:34:19
  TRACK 30 AUDIO
    TITLE "LR_black_phrase_C08_030"
    INDEX 01 00:34:39
  TRACK 31 AUDIO
    TITLE "LR_black_phrase_C08_031"
    INDEX 01 00:36:55
  TRACK 32 AUDIO
    TITLE "LR_black_phrase_C08_032"
    INDEX 01 00:37:49
  TRACK 33 AUDIO
    TITLE "LR_black_phrase_C08_033"
    INDEX 01 00:38:74
  TRACK 34 AUDIO
    TITLE "LR_black_phrase_C08_034"
    INDEX 01 00:39:36
  TRACK 35 AUDIO
    TITLE "LR_black_phrase_C08_035"
    INDEX 01 00:42:32
  TRACK 36 AUDIO
    TITLE "LR_black_phrase_C08_036"
    INDEX 01 00:43:34
  TRACK 37 AUDIO
    TITLE "LR_black_phrase_C08_037"
    INDEX 01 00:45:21
  TRACK 38 AUDIO
    TITLE "LR_black_phrase_C08_038"
    INDEX 01 00:45:54
  TRACK 39 AUDIO
    TITLE "LR_black_phrase_C08_039"
    INDEX 01 00:47:43
  TRACK 40 AUDIO
    TITLE "LR_black_phrase_C08_040"
    INDEX 01 00:47:65
  TRACK 41 AUDIO
    TITLE "LR_black_phrase_C08_041"
    INDEX 01 00:49:54
  TRACK 42 AUDIO
    TITLE "LR_black_phrase_C08_042"
    INDEX 01 00:50:57
  TRACK 43 AUDIO
    TITLE "LR_black_phrase_C08_043"
    INDEX 01 00:51:70
  TRACK 44 AUDIO
    TITLE "LR_black_phrase_C08_044"
    INDEX 01 00:52:36
  TRACK 45 AUDIO
    TITLE "LR_black_phrase_C08_045"
    INDEX 01 00:55:03
  TRACK 46 AUDIO
    TITLE "LR_black_phrase_C08_046"
    INDEX 01 00:56:03
  TRACK 47 AUDIO
    TITLE "LR_black_phrase_C08_047"
    INDEX 01 00:58:31
  TRACK 48 AUDIO
    TITLE "LR_black_phrase_C08_048"
    INDEX 01 00:58:74
  TRACK 49 AUDIO
    TITLE "LR_black_phrase_C08_049"
    INDEX 01 01:01:49
  TRACK 50 AUDIO
    TITLE "LR_black_phrase_C08_050"
    INDEX 01 01:02:04
  TRACK 51 AUDIO
    TITLE "LR_black_phrase_C08_051"
    INDEX 01 01:04:53
  TRACK 52 AUDIO
    TITLE "LR_black_phrase_C08_052"
    INDEX 01 01:05:57
  TRACK 53 AUDIO
    TITLE "LR_black_phrase_C08_053"
    INDEX 01 01:07:07
  TRACK 54 AUDIO
    TITLE "LR_black_phrase_C08_054"
    INDEX 01 01:07:44
  TRACK 55 AUDIO
    TITLE "LR_black_phrase_C08_055"
    INDEX 01 01:10:56
  TRACK 56 AUDIO
    TITLE "LR_black_phrase_C08_056"
    INDEX 01 01:11:57
  TRACK 57 AUDIO
    TITLE "LR_black_phrase_C08_057"
    INDEX 01 01:13:41
  TRACK 58 AUDIO
    TITLE "LR_black_phrase_C08_058"
    INDEX 01 01:14:05
  TRACK 59 AUDIO
    TITLE "LR_black_phrase_C08_059"
    INDEX 01 01:16:13
  TRACK 60 AUDIO
    TITLE "LR_black_phrase_C08_060"
    INDEX 01 01:16:43
  TRACK 61 AUDIO
    TITLE "LR_black_phrase_C08_061"
    INDEX 01 01:18:52
  TRACK 62 AUDIO
    TITLE "LR_black_phrase_C08_062"
    INDEX 01 01:19:49
  TRACK 63 AUDIO
    TITLE "LR_black_phrase_C08_063"
    INDEX 01 01:21:05
  TRACK 64 AUDIO
    TITLE "LR_black_phrase_C08_064"
    INDEX 01 01:21:44
  TRACK 65 AUDIO
    TITLE "LR_black_phrase_C08_065"
    INDEX 01 01:24:38
  TRACK 66 AUDIO
    TITLE "LR_black_phrase_C08_066"
    INDEX 01 01:25:38
  TRACK 67 AUDIO
    TITLE "LR_black_phrase_C08_067"
    INDEX 01 01:27:09
  TRACK 68 AUDIO
    TITLE "LR_black_phrase_C08_068"
    INDEX 01 01:27:43
  TRACK 69 AUDIO
    TITLE "LR_black_phrase_C08_069"
    INDEX 01 01:30:16
  TRACK 70 AUDIO
    TITLE "LR_black_phrase_C08_070"
    INDEX 01 01:30:35
  TRACK 71 AUDIO
    TITLE "LR_black_phrase_C08_071"
    INDEX 01 01:33:08
  TRACK 72 AUDIO
    TITLE "LR_black_phrase_C08_072"
    INDEX 01 01:34:02
  TRACK 73 AUDIO
    TITLE "LR_black_phrase_C08_073"
    INDEX 01 01:35:25
  TRACK 74 AUDIO
    TITLE "LR_black_phrase_C08_074"
    INDEX 01 01:35:62
  TRACK 75 AUDIO
    TITLE "LR_black_phrase_C08_075"
    INDEX 01 01:38:46
  TRACK 76 AUDIO
    TITLE "LR_black_phrase_C08_076"
    INDEX 01 01:39:46
  TRACK 77 AUDIO
    TITLE "LR_black_phrase_C08_077"
    INDEX 01 01:41:37
  TRACK 78 AUDIO
    TITLE "LR_black_phrase_C08_078"
    INDEX 01 01:42:01
  TRACK 79 AUDIO
    TITLE "LR_black_phrase_C08_079"
    INDEX 01 01:44:74
  TRACK 80 AUDIO
    TITLE "LR_black_phrase_C08_080"
    INDEX 01 01:45:23
  TRACK 81 AUDIO
    TITLE "LR_black_phrase_C08_081"
    INDEX 01 01:48:21
  TRACK 82 AUDIO
    TITLE "LR_black_phrase_C08_082"
    INDEX 01 01:49:23
  TRACK 83 AUDIO
    TITLE "LR_black_phrase_C08_083"
    INDEX 01 01:50:34
  TRACK 84 AUDIO
    TITLE "LR_black_phrase_C08_084"
    INDEX 01 01:50:73
  TRACK 85 AUDIO
    TITLE "LR_black_phrase_C08_085"
    INDEX 01 01:52:43
  TRACK 86 AUDIO
    TITLE "LR_black_phrase_C08_086"
    INDEX 01 01:53:42
  TRACK 87 AUDIO
    TITLE "LR_black_phrase_C08_087"
    INDEX 01 01:55:16
  TRACK 88 AUDIO
    TITLE "LR_black_phrase_C08_088"
    INDEX 01 01:55:55
  TRACK 89 AUDIO
    TITLE "LR_black_phrase_C08_089"
    INDEX 01 01:57:36
  TRACK 90 AUDIO
    TITLE "LR_black_phrase_C08_090"
    INDEX 01 01:57:65
  TRACK 91 AUDIO
    TITLE "LR_black_phrase_C08_091"
    INDEX 01 01:59:45
  TRACK 92 AUDIO
    TITLE "LR_black_phrase_C08_092"
    INDEX 01 02:00:50
  TRACK 93 AUDIO
    TITLE "LR_black_phrase_C08_093"
    INDEX 01 02:02:12
  TRACK 94 AUDIO
    TITLE "LR_black_phrase_C08_094"
    INDEX 01 02:02:53
  TRACK 95 AUDIO
    TITLE "LR_black_phrase_C08_095"
    INDEX 01 02:05:28
  TRACK 96 AUDIO
    TITLE "LR_black_phrase_C08_096"
    INDEX 01 02:06:25
  TRACK 97 AUDIO
    TITLE "LR_black_phrase_C08_097"
    INDEX 01 02:08:36
  TRACK 98 AUDIO
    TITLE "LR_black_phrase_C08_098"
    INDEX 01 02:08:75
  TRACK 99 AUDIO
    TITLE "LR_black_phrase_C08_099"
    INDEX 01 02:10:72
  TRACK 100 AUDIO
    TITLE "LR_black_phrase_C08_100"
    INDEX 01 02:11:24
  TRACK 101 AUDIO
    TITLE "LR_black_phrase_C08_101"
    INDEX 01 02:13:21
  TRACK 102 AUDIO
    TITLE "LR_black_phrase_C08_102"
    INDEX 01 02:14:21
  TRACK 103 AUDIO
    TITLE "LR_black_phrase_C08_103"
    INDEX 01 02:15:38
  TRACK 104 AUDIO
    TITLE "LR_black_phrase_C08_104"
    INDEX 01 02:15:75
  TRACK 105 AUDIO
    TITLE "LR_black_phrase_C08_105"
    INDEX 01 02:17:39
  TRACK 106 AUDIO
    TITLE "LR_black_phrase_C08_106"
    INDEX 01 02:18:38
  TRACK 107 AUDIO
    TITLE "LR_black_phrase_C08_107"
    INDEX 01 02:20:33
  TRACK 108 AUDIO
    TITLE "LR_black_phrase_C08_108"
    INDEX 01 02:20:66
  TRACK 109 AUDIO
    TITLE "LR_black_phrase_C08_109"
    INDEX 01 02:22:57
  TRACK 110 AUDIO
    TITLE "LR_black_phrase_C08_110"
    INDEX 01 02:23:02
  TRACK 111 AUDIO
    TITLE "LR_black_phrase_C08_111"
    INDEX 01 02:24:68
  TRACK 112 AUDIO
    TITLE "LR_black_phrase_C08_112"
    INDEX 01 02:25:62
  TRACK 113 AUDIO
    TITLE "LR_black_phrase_C08_113"
    INDEX 01 02:27:02
  TRACK 114 AUDIO
    TITLE "LR_black_phrase_C08_114"
    INDEX 01 02:27:35
  TRACK 115 AUDIO
    TITLE "LR_black_phrase_C08_115"
    INDEX 01 02:28:44
  TRACK 116 AUDIO
    TITLE "LR_black_phrase_C08_116"
    INDEX 01 02:29:42
  TRACK 117 AUDIO
    TITLE "LR_black_phrase_C08_117"
    INDEX 01 02:32:32
  TRACK 118 AUDIO
    TITLE "LR_black_phrase_C08_118"
    INDEX 01 02:32:66
  TRACK 119 AUDIO
    TITLE "LR_black_phrase_C08_119"
    INDEX 01 02:35:62
  TRACK 120 AUDIO
    TITLE "LR_black_phrase_C08_120"
    INDEX 01 02:36:07
  TRACK 121 AUDIO
    TITLE "LR_black_phrase_C08_121"
    INDEX 01 02:39:01
  TRACK 122 AUDIO
    TITLE "LR_black_phrase_C08_122"
    INDEX 01 02:40:02
  TRACK 123 AUDIO
    TITLE "LR_black_phrase_C08_123"
    INDEX 01 02:41:02
  TRACK 124 AUDIO
    TITLE "LR_black_phrase_C08_124"
    INDEX 01 02:41:43
  TRACK 125 AUDIO
    TITLE "LR_black_phrase_C08_125"
    INDEX 01 02:42:54
  TRACK 126 AUDIO
    TITLE "LR_black_phrase_C08_126"
    INDEX 01 02:43:50
  TRACK 127 AUDIO
    TITLE "LR_black_phrase_C08_127"
    INDEX 01 02:45:29
  TRACK 128 AUDIO
    TITLE "LR_black_phrase_C08_128"
    INDEX 01 02:45:66
  TRACK 129 AUDIO
    TITLE "LR_black_phrase_C08_129"
    INDEX 01 02:47:53
  TRACK 130 AUDIO
    TITLE "LR_black_phrase_C08_130"
    INDEX 01 02:48:10
  TRACK 131 AUDIO
    TITLE "LR_black_phrase_C08_131"
    INDEX 01 02:49:72
  TRACK 132 AUDIO
    TITLE "LR_black_phrase_C08_132"
    INDEX 01 02:51:02
  TRACK 133 AUDIO
    TITLE "LR_black_phrase_C08_133"
    INDEX 01 02:52:23
  TRACK 134 AUDIO
    TITLE "LR_black_phrase_C08_134"
    INDEX 01 02:52:62
  TRACK 135 AUDIO
    TITLE "LR_black_phrase_C08_135"
    INDEX 01 02:55:39
  TRACK 136 AUDIO
    TITLE "LR_black_phrase_C08_136"
    INDEX 01 02:56:37
  TRACK 137 AUDIO
    TITLE "LR_black_phrase_C08_137"
    INDEX 01 02:58:40
  TRACK 138 AUDIO
    TITLE "LR_black_phrase_C08_138"
    INDEX 01 02:59:04
  TRACK 139 AUDIO
    TITLE "LR_black_phrase_C08_139"
    INDEX 01 03:01:01
  TRACK 140 AUDIO
    TITLE "LR_black_phrase_C08_140"
    INDEX 01 03:01:30
  TRACK 141 AUDIO
    TITLE "LR_black_phrase_C08_141"
    INDEX 01 03:03:25
  TRACK 142 AUDIO
    TITLE "LR_black_phrase_C08_142"
    INDEX 01 03:04:24
  TRACK 143 AUDIO
    TITLE "LR_black_phrase_C08_143"
    INDEX 01 03:05:40
  TRACK 144 AUDIO
    TITLE "LR_black_phrase_C08_144"
    INDEX 01 03:05:75
  TRACK 145 AUDIO
    TITLE "LR_black_phrase_C08_145"
    INDEX 01 03:08:40
  TRACK 146 AUDIO
    TITLE "LR_black_phrase_C08_146"
    INDEX 01 03:09:39
  TRACK 147 AUDIO
    TITLE "LR_black_phrase_C08_147"
    INDEX 01 03:11:58
  TRACK 148 AUDIO
    TITLE "LR_black_phrase_C08_148"
    INDEX 01 03:12:16
  TRACK 149 AUDIO
    TITLE "LR_black_phrase_C08_149"
    INDEX 01 03:14:29
  TRACK 150 AUDIO
    TITLE "LR_black_phrase_C08_150"
    INDEX 01 03:14:54
  TRACK 151 AUDIO
    TITLE "LR_black_phrase_C08_151"
    INDEX 01 03:16:67
  TRACK 152 AUDIO
    TITLE "LR_black_phrase_C08_152"
    INDEX 01 03:17:68
  TRACK 153 AUDIO
    TITLE "LR_black_phrase_C08_153"
    INDEX 01 03:19:06
  TRACK 154 AUDIO
    TITLE "LR_black_phrase_C08_154"
    INDEX 01 03:19:42
  TRACK 155 AUDIO
    TITLE "LR_black_phrase_C08_155"
    INDEX 01 03:22:11
  TRACK 156 AUDIO
    TITLE "LR_black_phrase_C08_156"
    INDEX 01 03:23:10
  TRACK 157 AUDIO
    TITLE "LR_black_phrase_C08_157"
    INDEX 01 03:25:31
  TRACK 158 AUDIO
    TITLE "LR_black_phrase_C08_158"
    INDEX 01 03:25:64
  TRACK 159 AUDIO
    TITLE "LR_black_phrase_C08_159"
    INDEX 01 03:27:73
  TRACK 160 AUDIO
    TITLE "LR_black_phrase_C08_160"
    INDEX 01 03:28:19
  TRACK 161 AUDIO
    TITLE "LR_black_phrase_C08_161"
    INDEX 01 03:30:26
  TRACK 162 AUDIO
    TITLE "LR_black_phrase_C08_162"
    INDEX 01 03:31:29
  TRACK 163 AUDIO
    TITLE "LR_black_phrase_C08_163"
    INDEX 01 03:32:35
  TRACK 164 AUDIO
    TITLE "LR_black_phrase_C08_164"
    INDEX 01 03:32:74
  TRACK 165 AUDIO
    TITLE "LR_black_phrase_C08_165"
    INDEX 01 03:34:28
  TRACK 166 AUDIO
    TITLE "LR_black_phrase_C08_166"
    INDEX 01 03:35:25
  TRACK 167 AUDIO
    TITLE "LR_black_phrase_C08_167"
    INDEX 01 03:37:49
  TRACK 168 AUDIO
    TITLE "LR_black_phrase_C08_168"
    INDEX 01 03:38:12
  TRACK 169 AUDIO
    TITLE "LR_black_phrase_C08_169"
    INDEX 01 03:40:20
  TRACK 170 AUDIO
    TITLE "LR_black_phrase_C08_170"
    INDEX 01 03:40:48
  TRACK 171 AUDIO
    TITLE "LR_black_phrase_C08_171"
    INDEX 01 03:42:56
  TRACK 172 AUDIO
    TITLE "LR_black_phrase_C08_172"
    INDEX 01 03:43:58
  TRACK 173 AUDIO
    TITLE "LR_black_phrase_C08_173"
    INDEX 01 03:45:02
  TRACK 174 AUDIO
    TITLE "LR_black_phrase_C08_174"
    INDEX 01 03:45:39
  TRACK 175 AUDIO
    TITLE "LR_black_phrase_C08_175"
    INDEX 01 03:46:56
  TRACK 176 AUDIO
    TITLE "LR_black_phrase_C08_176"
    INDEX 01 03:47:54
  TRACK 177 AUDIO
    TITLE "LR_black_phrase_C08_177"
    INDEX 01 03:49:15
  TRACK 178 AUDIO
    TITLE "LR_black_phrase_C08_178"
    INDEX 01 03:49:55
  TRACK 179 AUDIO
    TITLE "LR_black_phrase_C08_179"
    INDEX 01 03:51:46
  TRACK 180 AUDIO
    TITLE "LR_black_phrase_C08_180"
    INDEX 01 03:51:71
  TRACK 181 AUDIO
    TITLE "LR_black_phrase_C08_181"
    INDEX 01 03:53:62
  TRACK 182 AUDIO
    TITLE "LR_black_phrase_C08_182"
    INDEX 01 03:54:60
  TRACK 183 AUDIO
    TITLE "LR_black_phrase_C08_183"
    INDEX 01 03:55:69
  TRACK 184 AUDIO
    TITLE "LR_black_phrase_C08_184"
    INDEX 01 03:56:37
  TRACK 185 AUDIO
    TITLE "LR_black_phrase_C08_185"
    INDEX 01 03:59:43
  TRACK 186 AUDIO
    TITLE "LR_black_phrase_C08_186"
    INDEX 01 04:00:43
  TRACK 187 AUDIO
    TITLE "LR_black_phrase_C08_187"
    INDEX 01 04:02:26
  TRACK 188 AUDIO
    TITLE "LR_black_phrase_C08_188"
    INDEX 01 04:02:59
  TRACK 189 AUDIO
    TITLE "LR_black_phrase_C08_189"
    INDEX 01 04:05:20
  TRACK 190 AUDIO
    TITLE "LR_black_phrase_C08_190"
    INDEX 01 04:05:40
  TRACK 191 AUDIO
    TITLE "LR_black_phrase_C08_191"
    INDEX 01 04:08:01
  TRACK 192 AUDIO
    TITLE "LR_black_phrase_C08_192"
    INDEX 01 04:08:72
  TRACK 193 AUDIO
    TITLE "LR_black_phrase_C08_193"
    INDEX 01 04:10:06
  TRACK 194 AUDIO
    TITLE "LR_black_phrase_C08_194"
    INDEX 01 04:10:43
  TRACK 195 AUDIO
    TITLE "LR_black_phrase_C08_195"
    INDEX 01 04:12:46
  TRACK 196 AUDIO
    TITLE "LR_black_phrase_C08_196"
    INDEX 01 04:13:45
  TRACK 197 AUDIO
    TITLE "LR_black_phrase_C08_197"
    INDEX 01 04:15:25
  TRACK 198 AUDIO
    TITLE "LR_black_phrase_C08_198"
    INDEX 01 04:15:60
  TRACK 199 AUDIO
    TITLE "LR_black_phrase_C08_199"
    INDEX 01 04:17:39
  TRACK 200 AUDIO
    TITLE "LR_black_phrase_C08_200"
    INDEX 01 04:17:61
  TRACK 201 AUDIO
    TITLE "LR_black_phrase_C08_201"
    INDEX 01 04:19:38
